<svg aria-roledescription="er" role="graphics-document document" viewBox="0 0 408.66064453125 876" style="max-width: 408.661px; background-color: white;" xmlns:xlink="http://www.w3.org/1999/xlink" xmlns="http://www.w3.org/2000/svg" width="100%" id="my-svg"><style>#my-svg{font-family:"trebuchet ms",verdana,arial,sans-serif;font-size:16px;fill:#333;}#my-svg .error-icon{fill:#552222;}#my-svg .error-text{fill:#552222;stroke:#552222;}#my-svg .edge-thickness-normal{stroke-width:1px;}#my-svg .edge-thickness-thick{stroke-width:3.5px;}#my-svg .edge-pattern-solid{stroke-dasharray:0;}#my-svg .edge-thickness-invisible{stroke-width:0;fill:none;}#my-svg .edge-pattern-dashed{stroke-dasharray:3;}#my-svg .edge-pattern-dotted{stroke-dasharray:2;}#my-svg .marker{fill:#333333;stroke:#333333;}#my-svg .marker.cross{stroke:#333333;}#my-svg svg{font-family:"trebuchet ms",verdana,arial,sans-serif;font-size:16px;}#my-svg p{margin:0;}#my-svg .entityBox{fill:#ECECFF;stroke:#9370DB;}#my-svg .attributeBoxOdd{fill:#ffffff;stroke:#9370DB;}#my-svg .attributeBoxEven{fill:#f2f2f2;stroke:#9370DB;}#my-svg .relationshipLabelBox{fill:hsl(80, 100%, 96.2745098039%);opacity:0.7;background-color:hsl(80, 100%, 96.2745098039%);}#my-svg .relationshipLabelBox rect{opacity:0.5;}#my-svg .relationshipLine{stroke:#333333;}#my-svg .entityTitleText{text-anchor:middle;font-size:18px;fill:#333;}#my-svg #MD_PARENT_START{fill:#f5f5f5!important;stroke:#333333!important;stroke-width:1;}#my-svg #MD_PARENT_END{fill:#f5f5f5!important;stroke:#333333!important;stroke-width:1;}#my-svg :root{--mermaid-font-family:"trebuchet ms",verdana,arial,sans-serif;}</style><g/><defs><marker orient="auto" markerHeight="240" markerWidth="190" refY="7" refX="0" id="MD_PARENT_START"><path d="M 18,7 L9,13 L1,7 L9,1 Z"/></marker></defs><defs><marker orient="auto" markerHeight="28" markerWidth="20" refY="7" refX="19" id="MD_PARENT_END"><path d="M 18,7 L9,13 L1,7 L9,1 Z"/></marker></defs><defs><marker orient="auto" markerHeight="18" markerWidth="18" refY="9" refX="0" id="ONLY_ONE_START"><path d="M9,0 L9,18 M15,0 L15,18" fill="none" stroke="gray"/></marker></defs><defs><marker orient="auto" markerHeight="18" markerWidth="18" refY="9" refX="18" id="ONLY_ONE_END"><path d="M3,0 L3,18 M9,0 L9,18" fill="none" stroke="gray"/></marker></defs><defs><marker orient="auto" markerHeight="18" markerWidth="30" refY="9" refX="0" id="ZERO_OR_ONE_START"><circle r="6" cy="9" cx="21" fill="white" stroke="gray"/><path d="M9,0 L9,18" fill="none" stroke="gray"/></marker></defs><defs><marker orient="auto" markerHeight="18" markerWidth="30" refY="9" refX="30" id="ZERO_OR_ONE_END"><circle r="6" cy="9" cx="9" fill="white" stroke="gray"/><path d="M21,0 L21,18" fill="none" stroke="gray"/></marker></defs><defs><marker orient="auto" markerHeight="36" markerWidth="45" refY="18" refX="18" id="ONE_OR_MORE_START"><path d="M0,18 Q 18,0 36,18 Q 18,36 0,18 M42,9 L42,27" fill="none" stroke="gray"/></marker></defs><defs><marker orient="auto" markerHeight="36" markerWidth="45" refY="18" refX="27" id="ONE_OR_MORE_END"><path d="M3,9 L3,27 M9,18 Q27,0 45,18 Q27,36 9,18" fill="none" stroke="gray"/></marker></defs><defs><marker orient="auto" markerHeight="36" markerWidth="57" refY="18" refX="18" id="ZERO_OR_MORE_START"><circle r="6" cy="18" cx="48" fill="white" stroke="gray"/><path d="M0,18 Q18,0 36,18 Q18,36 0,18" fill="none" stroke="gray"/></marker></defs><defs><marker orient="auto" markerHeight="36" markerWidth="57" refY="18" refX="39" id="ZERO_OR_MORE_END"><circle r="6" cy="18" cx="9" fill="white" stroke="gray"/><path d="M21,18 Q39,0 57,18 Q39,36 21,18" fill="none" stroke="gray"/></marker></defs><path style="stroke: gray; fill: none;" marker-start="url(#ONLY_ONE_START)" marker-end="url(#ONE_OR_MORE_END)" d="M99.328,220L99.328,228.333C99.328,236.667,99.328,253.333,99.328,270C99.328,286.667,99.328,303.333,99.328,311.667L99.328,320" class="er relationshipLine"/><path style="stroke: gray; fill: none;" marker-start="url(#ONLY_ONE_START)" marker-end="url(#ONE_OR_MORE_END)" d="M99.328,410L99.328,418.333C99.328,426.667,99.328,443.333,99.328,460C99.328,476.667,99.328,493.333,99.328,501.667L99.328,510" class="er relationshipLine"/><path style="stroke: gray; fill: none;" marker-start="url(#ONLY_ONE_START)" marker-end="url(#ONE_OR_MORE_END)" d="M99.328,622L99.328,630.333C99.328,638.667,99.328,655.333,107.596,672C115.863,688.667,132.397,705.333,140.664,713.667L148.931,722" class="er relationshipLine"/><path style="stroke: gray; fill: none;" marker-start="url(#ONLY_ONE_START)" marker-end="url(#ONE_OR_MORE_END)" d="M331.468,600L331.468,612C331.468,624,331.468,648,323.201,668.333C314.934,688.667,298.4,705.333,290.133,713.667L281.866,722" class="er relationshipLine"/><g transform="translate(25.3343505859375,320 )" id="entity-o-aa65c045-69be-527e-98ee-d153d4430d82"><rect height="90" width="147.98828125" y="0" x="0" class="er entityBox"/><text style="dominant-baseline: middle; text-anchor: middle; font-size: 12px;" transform="translate(73.994140625,12)" y="0" x="0" id="text-entity-o-aa65c045-69be-527e-98ee-d153d4430d82" class="er entityLabel">OrderShipmentRecord</text><rect height="22" width="31.541585286458332" y="24" x="0" class="er attributeBoxOdd"/><text style="dominant-baseline: middle; font-size: 10.2px;" transform="translate(5,35)" y="0" x="0" id="text-entity-o-aa65c045-69be-527e-98ee-d153d4430d82-attr-1-type" class="er entityLabel">text</text><rect height="22" width="91.93468221028645" y="24" x="31.541585286458332" class="er attributeBoxOdd"/><text style="dominant-baseline: middle; font-size: 10.2px;" transform="translate(36.54158528645833,35)" y="0" x="0" id="text-entity-o-aa65c045-69be-527e-98ee-d153d4430d82-attr-1-name" class="er entityLabel">OrderNumber</text><rect height="22" width="24.512013753255207" y="24" x="123.47626749674478" class="er attributeBoxOdd"/><text style="dominant-baseline: middle; font-size: 10.2px;" transform="translate(128.47626749674478,35)" y="0" x="0" id="text-entity-o-aa65c045-69be-527e-98ee-d153d4430d82-attr-1-key" class="er entityLabel">PK</text><rect height="22" width="31.541585286458332" y="46" x="0" class="er attributeBoxEven"/><text style="dominant-baseline: middle; font-size: 10.2px;" transform="translate(5,57)" y="0" x="0" id="text-entity-o-aa65c045-69be-527e-98ee-d153d4430d82-attr-2-type" class="er entityLabel">text</text><rect height="22" width="91.93468221028645" y="46" x="31.541585286458332" class="er attributeBoxEven"/><text style="dominant-baseline: middle; font-size: 10.2px;" transform="translate(36.54158528645833,57)" y="0" x="0" id="text-entity-o-aa65c045-69be-527e-98ee-d153d4430d82-attr-2-name" class="er entityLabel">CustomerNumber</text><rect height="22" width="24.512013753255207" y="46" x="123.47626749674478" class="er attributeBoxEven"/><text style="dominant-baseline: middle; font-size: 10.2px;" transform="translate(128.47626749674478,57)" y="0" x="0" id="text-entity-o-aa65c045-69be-527e-98ee-d153d4430d82-attr-2-key" class="er entityLabel">FK</text><rect height="22" width="31.541585286458332" y="68" x="0" class="er attributeBoxOdd"/><text style="dominant-baseline: middle; font-size: 10.2px;" transform="translate(5,79)" y="0" x="0" id="text-entity-o-aa65c045-69be-527e-98ee-d153d4430d82-attr-3-type" class="er entityLabel">text</text><rect height="22" width="91.93468221028645" y="68" x="31.541585286458332" class="er attributeBoxOdd"/><text style="dominant-baseline: middle; font-size: 10.2px;" transform="translate(36.54158528645833,79)" y="0" x="0" id="text-entity-o-aa65c045-69be-527e-98ee-d153d4430d82-attr-3-name" class="er entityLabel">OrderDate</text><rect height="22" width="24.512013753255207" y="68" x="123.47626749674478" class="er attributeBoxOdd"/><text style="dominant-baseline: middle; font-size: 10.2px;" transform="translate(128.47626749674478,79)" y="0" x="0" id="text-entity-o-aa65c045-69be-527e-98ee-d153d4430d82-attr-3-key" class="er entityLabel"/></g><g transform="translate(274.276123046875,532 )" id="entity-i-125c98c7-c1b0-50f9-9b5d-c7654e8c0e52"><rect height="68" width="114.38453674316406" y="0" x="0" class="er entityBox"/><text style="dominant-baseline: middle; text-anchor: middle; font-size: 12px;" transform="translate(57.19226837158203,12)" y="0" x="0" id="text-entity-i-125c98c7-c1b0-50f9-9b5d-c7654e8c0e52" class="er entityLabel">InventoryItem</text><rect height="22" width="29.717254638671875" y="24" x="0" class="er attributeBoxOdd"/><text style="dominant-baseline: middle; font-size: 10.2px;" transform="translate(5,35)" y="0" x="0" id="text-entity-i-125c98c7-c1b0-50f9-9b5d-c7654e8c0e52-attr-1-type" class="er entityLabel">text</text><rect height="22" width="61.97959899902344" y="24" x="29.717254638671875" class="er attributeBoxOdd"/><text style="dominant-baseline: middle; font-size: 10.2px;" transform="translate(34.717254638671875,35)" y="0" x="0" id="text-entity-i-125c98c7-c1b0-50f9-9b5d-c7654e8c0e52-attr-1-name" class="er entityLabel">ItemID</text><rect height="22" width="22.68768310546875" y="24" x="91.69685363769531" class="er attributeBoxOdd"/><text style="dominant-baseline: middle; font-size: 10.2px;" transform="translate(96.69685363769531,35)" y="0" x="0" id="text-entity-i-125c98c7-c1b0-50f9-9b5d-c7654e8c0e52-attr-1-key" class="er entityLabel">PK</text><rect height="22" width="29.717254638671875" y="46" x="0" class="er attributeBoxEven"/><text style="dominant-baseline: middle; font-size: 10.2px;" transform="translate(5,57)" y="0" x="0" id="text-entity-i-125c98c7-c1b0-50f9-9b5d-c7654e8c0e52-attr-2-type" class="er entityLabel">text</text><rect height="22" width="61.97959899902344" y="46" x="29.717254638671875" class="er attributeBoxEven"/><text style="dominant-baseline: middle; font-size: 10.2px;" transform="translate(34.717254638671875,57)" y="0" x="0" id="text-entity-i-125c98c7-c1b0-50f9-9b5d-c7654e8c0e52-attr-2-name" class="er entityLabel">Description</text><rect height="22" width="22.68768310546875" y="46" x="91.69685363769531" class="er attributeBoxEven"/><text style="dominant-baseline: middle; font-size: 10.2px;" transform="translate(96.69685363769531,57)" y="0" x="0" id="text-entity-i-125c98c7-c1b0-50f9-9b5d-c7654e8c0e52-attr-2-key" class="er entityLabel"/></g><g transform="translate(24.380859375,510 )" id="entity-s-9680c225-e6c9-50d4-ac76-70884b830dd2"><rect height="112" width="149.895263671875" y="0" x="0" class="er entityBox"/><text style="dominant-baseline: middle; text-anchor: middle; font-size: 12px;" transform="translate(74.9476318359375,12)" y="0" x="0" id="text-entity-s-9680c225-e6c9-50d4-ac76-70884b830dd2" class="er entityLabel">Shipment</text><rect height="22" width="29.717254638671875" y="24" x="0" class="er attributeBoxOdd"/><text style="dominant-baseline: middle; font-size: 10.2px;" transform="translate(5,35)" y="0" x="0" id="text-entity-s-9680c225-e6c9-50d4-ac76-70884b830dd2-attr-1-type" class="er entityLabel">text</text><rect height="22" width="80.91534423828125" y="24" x="29.717254638671875" class="er attributeBoxOdd"/><text style="dominant-baseline: middle; font-size: 10.2px;" transform="translate(34.717254638671875,35)" y="0" x="0" id="text-entity-s-9680c225-e6c9-50d4-ac76-70884b830dd2-attr-1-name" class="er entityLabel">OrderNumber</text><rect height="22" width="39.262664794921875" y="24" x="110.63259887695312" class="er attributeBoxOdd"/><text style="dominant-baseline: middle; font-size: 10.2px;" transform="translate(115.63259887695312,35)" y="0" x="0" id="text-entity-s-9680c225-e6c9-50d4-ac76-70884b830dd2-attr-1-comment" class="er entityLabel">PK|FK</text><rect height="22" width="29.717254638671875" y="46" x="0" class="er attributeBoxEven"/><text style="dominant-baseline: middle; font-size: 10.2px;" transform="translate(5,57)" y="0" x="0" id="text-entity-s-9680c225-e6c9-50d4-ac76-70884b830dd2-attr-2-type" class="er entityLabel">text</text><rect height="22" width="80.91534423828125" y="46" x="29.717254638671875" class="er attributeBoxEven"/><text style="dominant-baseline: middle; font-size: 10.2px;" transform="translate(34.717254638671875,57)" y="0" x="0" id="text-entity-s-9680c225-e6c9-50d4-ac76-70884b830dd2-attr-2-name" class="er entityLabel">ShipDate</text><rect height="22" width="39.262664794921875" y="46" x="110.63259887695312" class="er attributeBoxEven"/><text style="dominant-baseline: middle; font-size: 10.2px;" transform="translate(115.63259887695312,57)" y="0" x="0" id="text-entity-s-9680c225-e6c9-50d4-ac76-70884b830dd2-attr-2-comment" class="er entityLabel">PK</text><rect height="22" width="29.717254638671875" y="68" x="0" class="er attributeBoxOdd"/><text style="dominant-baseline: middle; font-size: 10.2px;" transform="translate(5,79)" y="0" x="0" id="text-entity-s-9680c225-e6c9-50d4-ac76-70884b830dd2-attr-3-type" class="er entityLabel">text</text><rect height="22" width="80.91534423828125" y="68" x="29.717254638671875" class="er attributeBoxOdd"/><text style="dominant-baseline: middle; font-size: 10.2px;" transform="translate(34.717254638671875,79)" y="0" x="0" id="text-entity-s-9680c225-e6c9-50d4-ac76-70884b830dd2-attr-3-name" class="er entityLabel">ShipperID</text><rect height="22" width="39.262664794921875" y="68" x="110.63259887695312" class="er attributeBoxOdd"/><text style="dominant-baseline: middle; font-size: 10.2px;" transform="translate(115.63259887695312,79)" y="0" x="0" id="text-entity-s-9680c225-e6c9-50d4-ac76-70884b830dd2-attr-3-comment" class="er entityLabel"/><rect height="22" width="29.717254638671875" y="90" x="0" class="er attributeBoxEven"/><text style="dominant-baseline: middle; font-size: 10.2px;" transform="translate(5,101)" y="0" x="0" id="text-entity-s-9680c225-e6c9-50d4-ac76-70884b830dd2-attr-4-type" class="er entityLabel">text</text><rect height="22" width="80.91534423828125" y="90" x="29.717254638671875" class="er attributeBoxEven"/><text style="dominant-baseline: middle; font-size: 10.2px;" transform="translate(34.717254638671875,101)" y="0" x="0" id="text-entity-s-9680c225-e6c9-50d4-ac76-70884b830dd2-attr-4-name" class="er entityLabel">WaybillNumber</text><rect height="22" width="39.262664794921875" y="90" x="110.63259887695312" class="er attributeBoxEven"/><text style="dominant-baseline: middle; font-size: 10.2px;" transform="translate(115.63259887695312,101)" y="0" x="0" id="text-entity-s-9680c225-e6c9-50d4-ac76-70884b830dd2-attr-4-comment" class="er entityLabel"/></g><g transform="translate(140.2510643005371,722 )" id="entity-m-7ded6ff7-39a0-5033-9ec7-ab9ad5488ac4"><rect height="134" width="150.2947540283203" y="0" x="0" class="er entityBox"/><text style="dominant-baseline: middle; text-anchor: middle; font-size: 12px;" transform="translate(75.14737701416016,12)" y="0" x="0" id="text-entity-m-7ded6ff7-39a0-5033-9ec7-ab9ad5488ac4" class="er entityLabel">ManifestItem</text><rect height="22" width="29.717254638671875" y="24" x="0" class="er attributeBoxOdd"/><text style="dominant-baseline: middle; font-size: 10.2px;" transform="translate(5,35)" y="0" x="0" id="text-entity-m-7ded6ff7-39a0-5033-9ec7-ab9ad5488ac4-attr-1-type" class="er entityLabel">text</text><rect height="22" width="76.44287109375" y="24" x="29.717254638671875" class="er attributeBoxOdd"/><text style="dominant-baseline: middle; font-size: 10.2px;" transform="translate(34.717254638671875,35)" y="0" x="0" id="text-entity-m-7ded6ff7-39a0-5033-9ec7-ab9ad5488ac4-attr-1-name" class="er entityLabel">OrderNumber</text><rect height="22" width="44.13462829589844" y="24" x="106.16012573242188" class="er attributeBoxOdd"/><text style="dominant-baseline: middle; font-size: 10.2px;" transform="translate(111.16012573242188,35)" y="0" x="0" id="text-entity-m-7ded6ff7-39a0-5033-9ec7-ab9ad5488ac4-attr-1-comment" class="er entityLabel">PK|FK1</text><rect height="22" width="29.717254638671875" y="46" x="0" class="er attributeBoxEven"/><text style="dominant-baseline: middle; font-size: 10.2px;" transform="translate(5,57)" y="0" x="0" id="text-entity-m-7ded6ff7-39a0-5033-9ec7-ab9ad5488ac4-attr-2-type" class="er entityLabel">text</text><rect height="22" width="76.44287109375" y="46" x="29.717254638671875" class="er attributeBoxEven"/><text style="dominant-baseline: middle; font-size: 10.2px;" transform="translate(34.717254638671875,57)" y="0" x="0" id="text-entity-m-7ded6ff7-39a0-5033-9ec7-ab9ad5488ac4-attr-2-name" class="er entityLabel">ShipDate</text><rect height="22" width="44.13462829589844" y="46" x="106.16012573242188" class="er attributeBoxEven"/><text style="dominant-baseline: middle; font-size: 10.2px;" transform="translate(111.16012573242188,57)" y="0" x="0" id="text-entity-m-7ded6ff7-39a0-5033-9ec7-ab9ad5488ac4-attr-2-comment" class="er entityLabel">PK|FK1</text><rect height="22" width="29.717254638671875" y="68" x="0" class="er attributeBoxOdd"/><text style="dominant-baseline: middle; font-size: 10.2px;" transform="translate(5,79)" y="0" x="0" id="text-entity-m-7ded6ff7-39a0-5033-9ec7-ab9ad5488ac4-attr-3-type" class="er entityLabel">text</text><rect height="22" width="76.44287109375" y="68" x="29.717254638671875" class="er attributeBoxOdd"/><text style="dominant-baseline: middle; font-size: 10.2px;" transform="translate(34.717254638671875,79)" y="0" x="0" id="text-entity-m-7ded6ff7-39a0-5033-9ec7-ab9ad5488ac4-attr-3-name" class="er entityLabel">ItemID</text><rect height="22" width="44.13462829589844" y="68" x="106.16012573242188" class="er attributeBoxOdd"/><text style="dominant-baseline: middle; font-size: 10.2px;" transform="translate(111.16012573242188,79)" y="0" x="0" id="text-entity-m-7ded6ff7-39a0-5033-9ec7-ab9ad5488ac4-attr-3-comment" class="er entityLabel">PK|FK2</text><rect height="22" width="29.717254638671875" y="90" x="0" class="er attributeBoxEven"/><text style="dominant-baseline: middle; font-size: 10.2px;" transform="translate(5,101)" y="0" x="0" id="text-entity-m-7ded6ff7-39a0-5033-9ec7-ab9ad5488ac4-attr-4-type" class="er entityLabel">text</text><rect height="22" width="76.44287109375" y="90" x="29.717254638671875" class="er attributeBoxEven"/><text style="dominant-baseline: middle; font-size: 10.2px;" transform="translate(34.717254638671875,101)" y="0" x="0" id="text-entity-m-7ded6ff7-39a0-5033-9ec7-ab9ad5488ac4-attr-4-name" class="er entityLabel">OrderQuantity</text><rect height="22" width="44.13462829589844" y="90" x="106.16012573242188" class="er attributeBoxEven"/><text style="dominant-baseline: middle; font-size: 10.2px;" transform="translate(111.16012573242188,101)" y="0" x="0" id="text-entity-m-7ded6ff7-39a0-5033-9ec7-ab9ad5488ac4-attr-4-comment" class="er entityLabel"/><rect height="22" width="29.717254638671875" y="112" x="0" class="er attributeBoxOdd"/><text style="dominant-baseline: middle; font-size: 10.2px;" transform="translate(5,123)" y="0" x="0" id="text-entity-m-7ded6ff7-39a0-5033-9ec7-ab9ad5488ac4-attr-5-type" class="er entityLabel">text</text><rect height="22" width="76.44287109375" y="112" x="29.717254638671875" class="er attributeBoxOdd"/><text style="dominant-baseline: middle; font-size: 10.2px;" transform="translate(34.717254638671875,123)" y="0" x="0" id="text-entity-m-7ded6ff7-39a0-5033-9ec7-ab9ad5488ac4-attr-5-name" class="er entityLabel">ShipQuantity</text><rect height="22" width="44.13462829589844" y="112" x="106.16012573242188" class="er attributeBoxOdd"/><text style="dominant-baseline: middle; font-size: 10.2px;" transform="translate(111.16012573242188,123)" y="0" x="0" id="text-entity-m-7ded6ff7-39a0-5033-9ec7-ab9ad5488ac4-attr-5-comment" class="er entityLabel"/></g><g transform="translate(20,20 )" id="entity-c-a89886f2-e56b-5248-8d43-e9d0ffa9a5bc"><rect height="200" width="158.656982421875" y="0" x="0" class="er entityBox"/><text style="dominant-baseline: middle; text-anchor: middle; font-size: 12px;" transform="translate(79.3284912109375,12)" y="0" x="0" id="text-entity-c-a89886f2-e56b-5248-8d43-e9d0ffa9a5bc" class="er entityLabel">Customer</text><rect height="22" width="45.85894775390625" y="24" x="0" class="er attributeBoxOdd"/><text style="dominant-baseline: middle; font-size: 10.2px;" transform="translate(5,35)" y="0" x="0" id="text-entity-c-a89886f2-e56b-5248-8d43-e9d0ffa9a5bc-attr-1-type" class="er entityLabel">number</text><rect height="22" width="90.1103515625" y="24" x="45.85894775390625" class="er attributeBoxOdd"/><text style="dominant-baseline: middle; font-size: 10.2px;" transform="translate(50.85894775390625,35)" y="0" x="0" id="text-entity-c-a89886f2-e56b-5248-8d43-e9d0ffa9a5bc-attr-1-name" class="er entityLabel">CustomerNumber</text><rect height="22" width="22.68768310546875" y="24" x="135.96929931640625" class="er attributeBoxOdd"/><text style="dominant-baseline: middle; font-size: 10.2px;" transform="translate(140.96929931640625,35)" y="0" x="0" id="text-entity-c-a89886f2-e56b-5248-8d43-e9d0ffa9a5bc-attr-1-key" class="er entityLabel">PK</text><rect height="22" width="45.85894775390625" y="46" x="0" class="er attributeBoxEven"/><text style="dominant-baseline: middle; font-size: 10.2px;" transform="translate(5,57)" y="0" x="0" id="text-entity-c-a89886f2-e56b-5248-8d43-e9d0ffa9a5bc-attr-2-type" class="er entityLabel">text</text><rect height="22" width="90.1103515625" y="46" x="45.85894775390625" class="er attributeBoxEven"/><text style="dominant-baseline: middle; font-size: 10.2px;" transform="translate(50.85894775390625,57)" y="0" x="0" id="text-entity-c-a89886f2-e56b-5248-8d43-e9d0ffa9a5bc-attr-2-name" class="er entityLabel">FirstName</text><rect height="22" width="22.68768310546875" y="46" x="135.96929931640625" class="er attributeBoxEven"/><text style="dominant-baseline: middle; font-size: 10.2px;" transform="translate(140.96929931640625,57)" y="0" x="0" id="text-entity-c-a89886f2-e56b-5248-8d43-e9d0ffa9a5bc-attr-2-key" class="er entityLabel"/><rect height="22" width="45.85894775390625" y="68" x="0" class="er attributeBoxOdd"/><text style="dominant-baseline: middle; font-size: 10.2px;" transform="translate(5,79)" y="0" x="0" id="text-entity-c-a89886f2-e56b-5248-8d43-e9d0ffa9a5bc-attr-3-type" class="er entityLabel">text</text><rect height="22" width="90.1103515625" y="68" x="45.85894775390625" class="er attributeBoxOdd"/><text style="dominant-baseline: middle; font-size: 10.2px;" transform="translate(50.85894775390625,79)" y="0" x="0" id="text-entity-c-a89886f2-e56b-5248-8d43-e9d0ffa9a5bc-attr-3-name" class="er entityLabel">LastName</text><rect height="22" width="22.68768310546875" y="68" x="135.96929931640625" class="er attributeBoxOdd"/><text style="dominant-baseline: middle; font-size: 10.2px;" transform="translate(140.96929931640625,79)" y="0" x="0" id="text-entity-c-a89886f2-e56b-5248-8d43-e9d0ffa9a5bc-attr-3-key" class="er entityLabel"/><rect height="22" width="45.85894775390625" y="90" x="0" class="er attributeBoxEven"/><text style="dominant-baseline: middle; font-size: 10.2px;" transform="translate(5,101)" y="0" x="0" id="text-entity-c-a89886f2-e56b-5248-8d43-e9d0ffa9a5bc-attr-4-type" class="er entityLabel">text</text><rect height="22" width="90.1103515625" y="90" x="45.85894775390625" class="er attributeBoxEven"/><text style="dominant-baseline: middle; font-size: 10.2px;" transform="translate(50.85894775390625,101)" y="0" x="0" id="text-entity-c-a89886f2-e56b-5248-8d43-e9d0ffa9a5bc-attr-4-name" class="er entityLabel">Address</text><rect height="22" width="22.68768310546875" y="90" x="135.96929931640625" class="er attributeBoxEven"/><text style="dominant-baseline: middle; font-size: 10.2px;" transform="translate(140.96929931640625,101)" y="0" x="0" id="text-entity-c-a89886f2-e56b-5248-8d43-e9d0ffa9a5bc-attr-4-key" class="er entityLabel"/><rect height="22" width="45.85894775390625" y="112" x="0" class="er attributeBoxOdd"/><text style="dominant-baseline: middle; font-size: 10.2px;" transform="translate(5,123)" y="0" x="0" id="text-entity-c-a89886f2-e56b-5248-8d43-e9d0ffa9a5bc-attr-5-type" class="er entityLabel">text</text><rect height="22" width="90.1103515625" y="112" x="45.85894775390625" class="er attributeBoxOdd"/><text style="dominant-baseline: middle; font-size: 10.2px;" transform="translate(50.85894775390625,123)" y="0" x="0" id="text-entity-c-a89886f2-e56b-5248-8d43-e9d0ffa9a5bc-attr-5-name" class="er entityLabel">City</text><rect height="22" width="22.68768310546875" y="112" x="135.96929931640625" class="er attributeBoxOdd"/><text style="dominant-baseline: middle; font-size: 10.2px;" transform="translate(140.96929931640625,123)" y="0" x="0" id="text-entity-c-a89886f2-e56b-5248-8d43-e9d0ffa9a5bc-attr-5-key" class="er entityLabel"/><rect height="22" width="45.85894775390625" y="134" x="0" class="er attributeBoxEven"/><text style="dominant-baseline: middle; font-size: 10.2px;" transform="translate(5,145)" y="0" x="0" id="text-entity-c-a89886f2-e56b-5248-8d43-e9d0ffa9a5bc-attr-6-type" class="er entityLabel">text</text><rect height="22" width="90.1103515625" y="134" x="45.85894775390625" class="er attributeBoxEven"/><text style="dominant-baseline: middle; font-size: 10.2px;" transform="translate(50.85894775390625,145)" y="0" x="0" id="text-entity-c-a89886f2-e56b-5248-8d43-e9d0ffa9a5bc-attr-6-name" class="er entityLabel">Province</text><rect height="22" width="22.68768310546875" y="134" x="135.96929931640625" class="er attributeBoxEven"/><text style="dominant-baseline: middle; font-size: 10.2px;" transform="translate(140.96929931640625,145)" y="0" x="0" id="text-entity-c-a89886f2-e56b-5248-8d43-e9d0ffa9a5bc-attr-6-key" class="er entityLabel"/><rect height="22" width="45.85894775390625" y="156" x="0" class="er attributeBoxOdd"/><text style="dominant-baseline: middle; font-size: 10.2px;" transform="translate(5,167)" y="0" x="0" id="text-entity-c-a89886f2-e56b-5248-8d43-e9d0ffa9a5bc-attr-7-type" class="er entityLabel">text</text><rect height="22" width="90.1103515625" y="156" x="45.85894775390625" class="er attributeBoxOdd"/><text style="dominant-baseline: middle; font-size: 10.2px;" transform="translate(50.85894775390625,167)" y="0" x="0" id="text-entity-c-a89886f2-e56b-5248-8d43-e9d0ffa9a5bc-attr-7-name" class="er entityLabel">PostalCode</text><rect height="22" width="22.68768310546875" y="156" x="135.96929931640625" class="er attributeBoxOdd"/><text style="dominant-baseline: middle; font-size: 10.2px;" transform="translate(140.96929931640625,167)" y="0" x="0" id="text-entity-c-a89886f2-e56b-5248-8d43-e9d0ffa9a5bc-attr-7-key" class="er entityLabel"/><rect height="22" width="45.85894775390625" y="178" x="0" class="er attributeBoxEven"/><text style="dominant-baseline: middle; font-size: 10.2px;" transform="translate(5,189)" y="0" x="0" id="text-entity-c-a89886f2-e56b-5248-8d43-e9d0ffa9a5bc-attr-8-type" class="er entityLabel">text</text><rect height="22" width="90.1103515625" y="178" x="45.85894775390625" class="er attributeBoxEven"/><text style="dominant-baseline: middle; font-size: 10.2px;" transform="translate(50.85894775390625,189)" y="0" x="0" id="text-entity-c-a89886f2-e56b-5248-8d43-e9d0ffa9a5bc-attr-8-name" class="er entityLabel">Phone</text><rect height="22" width="22.68768310546875" y="178" x="135.96929931640625" class="er attributeBoxEven"/><text style="dominant-baseline: middle; font-size: 10.2px;" transform="translate(140.96929931640625,189)" y="0" x="0" id="text-entity-c-a89886f2-e56b-5248-8d43-e9d0ffa9a5bc-attr-8-key" class="er entityLabel"/></g><rect height="14" width="40.88671875" y="263" x="78.8846435546875" class="er relationshipLabelBox"/><text style="text-anchor: middle; dominant-baseline: middle; font-size: 12px;" y="270" x="99.3280029296875" id="rel1" class="er relationshipLabel">has/for</text><rect height="14" width="123.15625" y="453" x="37.7498779296875" class="er relationshipLabelBox"/><text style="text-anchor: middle; dominant-baseline: middle; font-size: 12px;" y="460" x="99.3280029296875" id="rel2" class="er relationshipLabel">made up of/belongs to</text><rect height="14" width="88.595703125" y="671.092529296875" x="66.66786193847656" class="er relationshipLabelBox"/><text style="text-anchor: middle; dominant-baseline: middle; font-size: 12px;" y="678.092529296875" x="110.96571350097656" id="rel3" class="er relationshipLabel">contains/part of</text><rect height="14" width="113.017578125" y="660.8365478515625" x="266.89208984375" class="er relationshipLabelBox"/><text style="text-anchor: middle; dominant-baseline: middle; font-size: 12px;" y="667.8365478515625" x="323.40087890625" id="rel4" class="er relationshipLabel">sent on/identified as</text></svg>